<svg xmlns="http://www.w3.org/2000/svg" xmlns:xlink="http://www.w3.org/1999/xlink" version="1.2" baseProfile="tiny" text-rendering="geometricPrecision" preserveAspectRatio="xMidYMid meet" font-weight="normal" font-family="Helvetica" width="300" height="300" viewBox="0 0 193.93 330.01" style="width: 100%; height: 100%;">
<rect x="0" y="0" width="193.93" height="330.01" fill="rgb(255, 255, 255)" opacity="0.0"></rect>
<line x1="51.00" y1="162.75" x2="45.00" y2="162.75" stroke="rgb(192, 192, 0)"></line>
<line x1="45.00" y1="162.75" x2="39.00" y2="162.75" stroke="rgb(255, 0, 0)"></line>
<line x1="51.00" y1="167.25" x2="45.00" y2="167.25" stroke="rgb(192, 192, 0)"></line>
<line x1="45.00" y1="167.25" x2="39.00" y2="167.25" stroke="rgb(255, 0, 0)"></line>
<line x1="69.00" y1="167.25" x2="75.00" y2="167.25" stroke="rgb(192, 192, 0)"></line>
<line x1="75.00" y1="167.25" x2="81.00" y2="167.25" stroke="rgb(255, 0, 0)"></line>
<line x1="69.00" y1="162.75" x2="75.00" y2="162.75" stroke="rgb(192, 192, 0)"></line>
<line x1="75.00" y1="162.75" x2="81.00" y2="162.75" stroke="rgb(255, 0, 0)"></line>
<line x1="60.00" y1="156.00" x2="60.00" y2="150.00" stroke="rgb(192, 192, 0)"></line>
<line x1="60.00" y1="150.00" x2="60.00" y2="144.00" stroke="rgb(0, 0, 255)"></line>
<line x1="60.00" y1="174.00" x2="60.00" y2="184.50" stroke="rgb(192, 192, 0)"></line>
<line x1="60.00" y1="184.50" x2="60.00" y2="195.00" stroke="rgb(0, 0, 0)"></line>
<line x1="105.30" y1="128.55" x2="96.20" y2="123.30" stroke="rgb(255, 0, 0)"></line>
<line x1="96.20" y1="123.30" x2="87.11" y2="118.05" stroke="rgb(0, 0, 0)"></line>
<line x1="103.05" y1="132.45" x2="93.95" y2="127.20" stroke="rgb(255, 0, 0)"></line>
<line x1="93.95" y1="127.20" x2="84.86" y2="121.95" stroke="rgb(0, 0, 0)"></line>
<line x1="79.31" y1="293.56" x2="70.22" y2="288.31" stroke="rgb(255, 0, 0)"></line>
<line x1="70.22" y1="288.31" x2="61.13" y2="283.06" stroke="rgb(0, 0, 0)"></line>
<line x1="77.06" y1="297.46" x2="67.97" y2="292.21" stroke="rgb(255, 0, 0)"></line>
<line x1="67.97" y1="292.21" x2="58.88" y2="286.96" stroke="rgb(0, 0, 0)"></line>
<line x1="93.78" y1="85.50" x2="102.87" y2="80.25" stroke="rgb(0, 0, 255)"></line>
<line x1="102.87" y1="80.25" x2="111.97" y2="75.00" stroke="rgb(0, 0, 0)"></line>
<line x1="85.98" y1="99.00" x2="85.98" y2="109.50" stroke="rgb(0, 0, 255)"></line>
<line x1="85.98" y1="109.50" x2="85.98" y2="120.00" stroke="rgb(0, 0, 0)"></line>
<line x1="67.80" y1="130.50" x2="76.89" y2="125.25" stroke="rgb(0, 0, 255)"></line>
<line x1="76.89" y1="125.25" x2="85.98" y2="120.00" stroke="rgb(0, 0, 0)"></line>
<line x1="111.97" y1="75.00" x2="111.97" y2="45.00" stroke="rgb(0, 0, 0)"></line>
<line x1="111.97" y1="75.00" x2="137.95" y2="90.00" stroke="rgb(0, 0, 0)"></line>
<line x1="111.97" y1="45.00" x2="137.95" y2="30.00" stroke="rgb(0, 0, 0)"></line>
<line x1="137.95" y1="90.00" x2="163.93" y2="75.00" stroke="rgb(0, 0, 0)"></line>
<line x1="137.95" y1="30.00" x2="163.93" y2="45.00" stroke="rgb(0, 0, 0)"></line>
<line x1="163.93" y1="75.00" x2="163.93" y2="45.00" stroke="rgb(0, 0, 0)"></line>
<line x1="60.00" y1="195.00" x2="34.02" y2="210.00" stroke="rgb(0, 0, 0)"></line>
<line x1="59.66" y1="200.40" x2="38.87" y2="212.40" stroke="rgb(0, 0, 0)"></line>
<line x1="60.00" y1="195.00" x2="85.98" y2="210.00" stroke="rgb(0, 0, 0)"></line>
<line x1="34.02" y1="210.00" x2="34.02" y2="240.00" stroke="rgb(0, 0, 0)"></line>
<line x1="85.98" y1="210.00" x2="85.98" y2="240.00" stroke="rgb(0, 0, 0)"></line>
<line x1="81.48" y1="213.00" x2="81.48" y2="237.00" stroke="rgb(0, 0, 0)"></line>
<line x1="60.00" y1="255.01" x2="34.02" y2="240.00" stroke="rgb(0, 0, 0)"></line>
<line x1="59.66" y1="249.61" x2="38.87" y2="237.61" stroke="rgb(0, 0, 0)"></line>
<line x1="60.00" y1="255.01" x2="85.98" y2="240.00" stroke="rgb(0, 0, 0)"></line>
<line x1="60.00" y1="255.01" x2="60.00" y2="285.01" stroke="rgb(0, 0, 0)"></line>
<line x1="60.00" y1="285.01" x2="34.02" y2="300.01" stroke="rgb(0, 0, 0)"></line>
<text x="60.00" y="172.00" font-size="14.0" fill="rgb(192, 192, 0)" text-anchor="middle">S</text>
<text x="111.97" y="142.00" font-size="14.0" fill="rgb(255, 0, 0)" text-anchor="middle">O</text>
<text x="30.00" y="172.00" font-size="14.0" fill="rgb(255, 0, 0)" text-anchor="middle">O</text>
<text x="90.00" y="172.00" font-size="14.0" fill="rgb(255, 0, 0)" text-anchor="middle">O</text>
<text x="85.98" y="307.01" font-size="14.0" fill="rgb(255, 0, 0)" text-anchor="middle">O</text>
<text x="85.98" y="97.00" font-size="14.0" fill="rgb(0, 0, 255)" text-anchor="middle">NH</text>
<text x="60.00" y="142.00" font-size="14.0" fill="rgb(0, 0, 255)" text-anchor="middle">NH</text>
</svg>
