<svg xmlns="http://www.w3.org/2000/svg" xmlns:xlink="http://www.w3.org/1999/xlink" version="1.2" baseProfile="tiny" text-rendering="geometricPrecision" preserveAspectRatio="xMidYMid meet" font-weight="normal" font-family="Helvetica" width="300" height="300" viewBox="0 0 1190.84 674.97" style="width: 100%; height: 100%;">
<rect x="0" y="0" width="1190.84" height="674.97" fill="rgb(255, 255, 255)" opacity="0.0"></rect>
<line x1="241.70" y1="641.15" x2="249.94" y2="634.64" stroke="rgb(0, 0, 255)"></line>
<line x1="249.94" y1="634.64" x2="258.18" y2="628.13" stroke="rgb(0, 0, 0)"></line>
<line x1="238.91" y1="637.62" x2="247.15" y2="631.11" stroke="rgb(0, 0, 255)"></line>
<line x1="247.15" y1="631.11" x2="255.39" y2="624.60" stroke="rgb(0, 0, 0)"></line>
<line x1="256.78" y1="626.36" x2="266.54" y2="630.24" stroke="rgb(0, 0, 0)"></line>
<line x1="266.54" y1="630.24" x2="276.30" y2="634.12" stroke="rgb(0, 0, 255)"></line>
<line x1="256.78" y1="626.36" x2="255.26" y2="615.97" stroke="rgb(0, 0, 0)"></line>
<line x1="255.26" y1="615.97" x2="253.74" y2="605.58" stroke="rgb(0, 0, 255)"></line>
<line x1="244.07" y1="593.36" x2="234.31" y2="589.48" stroke="rgb(0, 0, 255)"></line>
<line x1="234.31" y1="589.48" x2="224.55" y2="585.60" stroke="rgb(0, 0, 0)"></line>
<line x1="224.55" y1="585.60" x2="220.21" y2="555.92" stroke="rgb(0, 0, 0)"></line>
<line x1="220.21" y1="555.92" x2="192.33" y2="544.84" stroke="rgb(0, 0, 0)"></line>
<line x1="192.33" y1="544.84" x2="187.98" y2="515.16" stroke="rgb(0, 0, 0)"></line>
<g stroke="rgb(0, 0, 0)" stroke-width="0.3" transform="matrix(2.79 1.11 -0.17 0.42 168.47 507.40)">
 <line x1="0" y1="8" x2="0" y2="-8"></line>
 <line x1="1" y1="7" x2="1" y2="-7"></line>
 <line x1="2" y1="6" x2="2" y2="-6"></line>
 <line x1="3" y1="5" x2="3" y2="-5"></line>
 <line x1="4" y1="4" x2="4" y2="-4"></line>
 <line x1="5" y1="3" x2="5" y2="-3"></line>
 <line x1="6" y1="2" x2="6" y2="-2"></line>
 <line x1="7" y1="1" x2="7" y2="-1"></line>
</g>
<line x1="153.04" y1="509.66" x2="144.81" y2="516.17" stroke="rgb(0, 0, 255)"></line>
<line x1="144.81" y1="516.17" x2="136.57" y2="522.69" stroke="rgb(0, 0, 0)"></line>
<line x1="134.34" y1="523.01" x2="135.86" y2="533.40" stroke="rgb(0, 0, 0)"></line>
<line x1="135.86" y1="533.40" x2="137.38" y2="543.79" stroke="rgb(255, 0, 0)"></line>
<line x1="138.79" y1="522.36" x2="140.32" y2="532.75" stroke="rgb(0, 0, 0)"></line>
<line x1="140.32" y1="532.75" x2="141.84" y2="543.14" stroke="rgb(255, 0, 0)"></line>
<g stroke="rgb(0, 0, 0)" stroke-width="0.3" transform="matrix(-3.98 -1.58 0.24 -0.60 136.57 522.69)">
 <line x1="0" y1="8" x2="0" y2="-8"></line>
 <line x1="1" y1="7" x2="1" y2="-7"></line>
 <line x1="2" y1="6" x2="2" y2="-6"></line>
 <line x1="3" y1="5" x2="3" y2="-5"></line>
 <line x1="4" y1="4" x2="4" y2="-4"></line>
 <line x1="5" y1="3" x2="5" y2="-3"></line>
 <line x1="6" y1="2" x2="6" y2="-2"></line>
 <line x1="7" y1="1" x2="7" y2="-1"></line>
</g>
<line x1="108.69" y1="511.61" x2="83.34" y2="527.65" stroke="rgb(0, 0, 0)"></line>
<line x1="83.34" y1="527.65" x2="60.25" y2="508.50" stroke="rgb(0, 0, 0)"></line>
<line x1="60.25" y1="508.50" x2="71.32" y2="480.62" stroke="rgb(0, 0, 0)"></line>
<line x1="71.32" y1="480.62" x2="81.80" y2="481.29" stroke="rgb(0, 0, 0)"></line>
<line x1="81.80" y1="481.29" x2="92.28" y2="481.96" stroke="rgb(0, 0, 255)"></line>
<line x1="108.69" y1="511.61" x2="106.09" y2="501.43" stroke="rgb(0, 0, 0)"></line>
<line x1="106.09" y1="501.43" x2="103.49" y2="491.26" stroke="rgb(0, 0, 255)"></line>
<line x1="107.01" y1="475.61" x2="113.71" y2="467.53" stroke="rgb(0, 0, 255)"></line>
<line x1="113.71" y1="467.53" x2="120.42" y2="459.45" stroke="rgb(0, 0, 0)"></line>
<line x1="120.04" y1="461.67" x2="130.39" y2="463.43" stroke="rgb(0, 0, 0)"></line>
<line x1="130.39" y1="463.43" x2="140.74" y2="465.19" stroke="rgb(255, 0, 0)"></line>
<line x1="120.79" y1="457.23" x2="131.14" y2="458.99" stroke="rgb(0, 0, 0)"></line>
<line x1="131.14" y1="458.99" x2="141.50" y2="460.76" stroke="rgb(255, 0, 0)"></line>
<line x1="120.42" y1="459.45" x2="109.99" y2="431.31" stroke="rgb(0, 0, 0)"></line>
<polygon points="0,1 0,-1 1,0" fill="rgb(0, 0, 0)" transform="matrix(-13.40 16.16 -2.42 -2.01 123.40 415.15)"></polygon>
<line x1="109.99" y1="431.31" x2="80.42" y2="426.28" stroke="rgb(0, 0, 0)"></line>
<line x1="80.42" y1="426.28" x2="70.00" y2="398.14" stroke="rgb(0, 0, 0)"></line>
<line x1="70.00" y1="398.14" x2="40.42" y2="393.11" stroke="rgb(0, 0, 0)"></line>
<line x1="67.79" y1="393.20" x2="44.13" y2="389.17" stroke="rgb(0, 0, 0)"></line>
<line x1="40.42" y1="393.11" x2="30.00" y2="364.97" stroke="rgb(0, 0, 0)"></line>
<line x1="30.00" y1="364.97" x2="49.15" y2="341.88" stroke="rgb(0, 0, 0)"></line>
<line x1="35.38" y1="365.54" x2="50.70" y2="347.06" stroke="rgb(0, 0, 0)"></line>
<line x1="49.15" y1="341.88" x2="78.72" y2="346.92" stroke="rgb(0, 0, 0)"></line>
<line x1="78.72" y1="346.92" x2="89.15" y2="375.05" stroke="rgb(0, 0, 0)"></line>
<line x1="75.55" y1="351.30" x2="83.88" y2="373.80" stroke="rgb(0, 0, 0)"></line>
<line x1="70.00" y1="398.14" x2="89.15" y2="375.05" stroke="rgb(0, 0, 0)"></line>
<line x1="187.98" y1="515.16" x2="211.52" y2="496.55" stroke="rgb(0, 0, 0)"></line>
<line x1="213.74" y1="496.22" x2="212.22" y2="485.83" stroke="rgb(0, 0, 0)"></line>
<line x1="212.22" y1="485.83" x2="210.70" y2="475.45" stroke="rgb(255, 0, 0)"></line>
<line x1="209.29" y1="496.88" x2="207.77" y2="486.49" stroke="rgb(0, 0, 0)"></line>
<line x1="207.77" y1="486.49" x2="206.25" y2="476.10" stroke="rgb(255, 0, 0)"></line>
<line x1="211.52" y1="496.55" x2="221.28" y2="500.43" stroke="rgb(0, 0, 0)"></line>
<line x1="221.28" y1="500.43" x2="231.03" y2="504.31" stroke="rgb(0, 0, 255)"></line>
<line x1="241.63" y1="516.35" x2="244.22" y2="526.52" stroke="rgb(0, 0, 255)"></line>
<line x1="244.22" y1="526.52" x2="246.82" y2="536.70" stroke="rgb(0, 0, 0)"></line>
<line x1="246.82" y1="536.70" x2="276.76" y2="538.62" stroke="rgb(0, 0, 0)"></line>
<line x1="276.76" y1="538.62" x2="287.84" y2="510.74" stroke="rgb(0, 0, 0)"></line>
<line x1="287.84" y1="510.74" x2="264.75" y2="491.59" stroke="rgb(0, 0, 0)"></line>
<line x1="247.00" y1="502.82" x2="255.88" y2="497.20" stroke="rgb(0, 0, 255)"></line>
<line x1="255.88" y1="497.20" x2="264.75" y2="491.59" stroke="rgb(0, 0, 0)"></line>
<g stroke="rgb(0, 0, 0)" stroke-width="0.3" transform="matrix(-0.27 4.28 -0.64 -0.04 266.67 461.64)">
 <line x1="0" y1="8" x2="0" y2="-8"></line>
 <line x1="1" y1="7" x2="1" y2="-7"></line>
 <line x1="2" y1="6" x2="2" y2="-6"></line>
 <line x1="3" y1="5" x2="3" y2="-5"></line>
 <line x1="4" y1="4" x2="4" y2="-4"></line>
 <line x1="5" y1="3" x2="5" y2="-3"></line>
 <line x1="6" y1="2" x2="6" y2="-2"></line>
 <line x1="7" y1="1" x2="7" y2="-1"></line>
</g>
<line x1="267.67" y1="463.66" x2="277.08" y2="459.00" stroke="rgb(0, 0, 0)"></line>
<line x1="277.08" y1="459.00" x2="286.49" y2="454.35" stroke="rgb(255, 0, 0)"></line>
<line x1="265.67" y1="459.63" x2="275.08" y2="454.97" stroke="rgb(0, 0, 0)"></line>
<line x1="275.08" y1="454.97" x2="284.49" y2="450.31" stroke="rgb(255, 0, 0)"></line>
<line x1="266.67" y1="461.64" x2="257.93" y2="455.82" stroke="rgb(0, 0, 0)"></line>
<line x1="257.93" y1="455.82" x2="249.19" y2="450.00" stroke="rgb(0, 0, 255)"></line>
<line x1="242.28" y1="436.03" x2="242.95" y2="425.55" stroke="rgb(0, 0, 255)"></line>
<line x1="242.95" y1="425.55" x2="243.62" y2="415.07" stroke="rgb(0, 0, 0)"></line>
<line x1="243.62" y1="415.07" x2="270.51" y2="401.77" stroke="rgb(0, 0, 0)"></line>
<line x1="272.75" y1="401.91" x2="273.43" y2="391.43" stroke="rgb(0, 0, 0)"></line>
<line x1="273.43" y1="391.43" x2="274.10" y2="380.95" stroke="rgb(255, 0, 0)"></line>
<line x1="268.26" y1="401.62" x2="268.93" y2="391.15" stroke="rgb(0, 0, 0)"></line>
<line x1="268.93" y1="391.15" x2="269.61" y2="380.67" stroke="rgb(255, 0, 0)"></line>
<line x1="270.51" y1="401.77" x2="279.25" y2="407.59" stroke="rgb(0, 0, 0)"></line>
<line x1="279.25" y1="407.59" x2="287.99" y2="413.41" stroke="rgb(0, 0, 255)"></line>
<line x1="303.54" y1="414.41" x2="312.95" y2="409.75" stroke="rgb(0, 0, 255)"></line>
<line x1="312.95" y1="409.75" x2="322.36" y2="405.09" stroke="rgb(0, 0, 0)"></line>
<line x1="322.36" y1="405.09" x2="347.33" y2="421.73" stroke="rgb(0, 0, 0)"></line>
<line x1="345.09" y1="421.58" x2="344.41" y2="432.06" stroke="rgb(0, 0, 0)"></line>
<line x1="344.41" y1="432.06" x2="343.74" y2="442.54" stroke="rgb(255, 0, 0)"></line>
<line x1="349.58" y1="421.87" x2="348.90" y2="432.35" stroke="rgb(0, 0, 0)"></line>
<line x1="348.90" y1="432.35" x2="348.23" y2="442.83" stroke="rgb(255, 0, 0)"></line>
<line x1="347.33" y1="421.73" x2="356.74" y2="417.07" stroke="rgb(0, 0, 0)"></line>
<line x1="356.74" y1="417.07" x2="366.15" y2="412.41" stroke="rgb(0, 0, 255)"></line>
<line x1="381.71" y1="413.41" x2="390.45" y2="419.23" stroke="rgb(0, 0, 255)"></line>
<line x1="390.45" y1="419.23" x2="399.19" y2="425.06" stroke="rgb(0, 0, 0)"></line>
<line x1="399.19" y1="425.06" x2="426.07" y2="411.75" stroke="rgb(0, 0, 0)"></line>
<line x1="428.32" y1="411.89" x2="428.99" y2="401.42" stroke="rgb(0, 0, 0)"></line>
<line x1="428.99" y1="401.42" x2="429.67" y2="390.94" stroke="rgb(255, 0, 0)"></line>
<line x1="423.83" y1="411.61" x2="424.50" y2="401.13" stroke="rgb(0, 0, 0)"></line>
<line x1="424.50" y1="401.13" x2="425.17" y2="390.65" stroke="rgb(255, 0, 0)"></line>
<line x1="426.07" y1="411.75" x2="434.81" y2="417.57" stroke="rgb(0, 0, 0)"></line>
<line x1="434.81" y1="417.57" x2="443.55" y2="423.39" stroke="rgb(0, 0, 255)"></line>
<line x1="459.11" y1="424.39" x2="468.52" y2="419.73" stroke="rgb(0, 0, 255)"></line>
<line x1="468.52" y1="419.73" x2="477.93" y2="415.07" stroke="rgb(0, 0, 0)"></line>
<line x1="477.93" y1="415.07" x2="502.90" y2="431.71" stroke="rgb(0, 0, 0)"></line>
<line x1="500.65" y1="431.56" x2="499.98" y2="442.04" stroke="rgb(0, 0, 0)"></line>
<line x1="499.98" y1="442.04" x2="499.31" y2="452.52" stroke="rgb(255, 0, 0)"></line>
<line x1="505.14" y1="431.85" x2="504.47" y2="442.33" stroke="rgb(0, 0, 0)"></line>
<line x1="504.47" y1="442.33" x2="503.80" y2="452.81" stroke="rgb(255, 0, 0)"></line>
<line x1="502.90" y1="431.71" x2="512.31" y2="427.05" stroke="rgb(0, 0, 0)"></line>
<line x1="512.31" y1="427.05" x2="521.72" y2="422.39" stroke="rgb(0, 0, 255)"></line>
<g stroke="rgb(0, 0, 0)" stroke-width="0.3" transform="matrix(2.50 1.66 -0.25 0.37 537.28 423.39)">
 <line x1="0" y1="8" x2="0" y2="-8"></line>
 <line x1="1" y1="7" x2="1" y2="-7"></line>
 <line x1="2" y1="6" x2="2" y2="-6"></line>
 <line x1="3" y1="5" x2="3" y2="-5"></line>
 <line x1="4" y1="4" x2="4" y2="-4"></line>
 <line x1="5" y1="3" x2="5" y2="-3"></line>
 <line x1="6" y1="2" x2="6" y2="-2"></line>
 <line x1="7" y1="1" x2="7" y2="-1"></line>
</g>
<line x1="554.75" y1="435.03" x2="552.83" y2="464.97" stroke="rgb(0, 0, 0)"></line>
<line x1="552.83" y1="464.97" x2="577.80" y2="481.60" stroke="rgb(0, 0, 0)"></line>
<line x1="577.80" y1="481.60" x2="577.13" y2="492.08" stroke="rgb(0, 0, 0)"></line>
<line x1="577.13" y1="492.08" x2="576.45" y2="502.56" stroke="rgb(0, 0, 255)"></line>
<line x1="578.80" y1="483.62" x2="588.21" y2="478.96" stroke="rgb(0, 0, 0)"></line>
<line x1="588.21" y1="478.96" x2="597.62" y2="474.31" stroke="rgb(255, 0, 0)"></line>
<line x1="576.80" y1="479.59" x2="586.21" y2="474.93" stroke="rgb(0, 0, 0)"></line>
<line x1="586.21" y1="474.93" x2="595.62" y2="470.27" stroke="rgb(255, 0, 0)"></line>
<line x1="554.75" y1="435.03" x2="581.64" y2="421.73" stroke="rgb(0, 0, 0)"></line>
<line x1="583.89" y1="421.87" x2="584.56" y2="411.39" stroke="rgb(0, 0, 0)"></line>
<line x1="584.56" y1="411.39" x2="585.23" y2="400.91" stroke="rgb(255, 0, 0)"></line>
<line x1="579.40" y1="421.58" x2="580.07" y2="411.11" stroke="rgb(0, 0, 0)"></line>
<line x1="580.07" y1="411.11" x2="580.74" y2="400.63" stroke="rgb(255, 0, 0)"></line>
<line x1="581.64" y1="421.73" x2="590.38" y2="427.55" stroke="rgb(0, 0, 0)"></line>
<line x1="590.38" y1="427.55" x2="599.12" y2="433.37" stroke="rgb(0, 0, 255)"></line>
<line x1="614.68" y1="434.37" x2="624.09" y2="429.71" stroke="rgb(0, 0, 255)"></line>
<line x1="624.09" y1="429.71" x2="633.50" y2="425.06" stroke="rgb(0, 0, 0)"></line>
<line x1="633.50" y1="425.06" x2="658.46" y2="441.69" stroke="rgb(0, 0, 0)"></line>
<line x1="656.22" y1="441.54" x2="655.55" y2="452.02" stroke="rgb(0, 0, 0)"></line>
<line x1="655.55" y1="452.02" x2="654.88" y2="462.50" stroke="rgb(255, 0, 0)"></line>
<line x1="660.71" y1="441.83" x2="660.04" y2="452.31" stroke="rgb(0, 0, 0)"></line>
<line x1="660.04" y1="452.31" x2="659.37" y2="462.79" stroke="rgb(255, 0, 0)"></line>
<line x1="658.46" y1="441.69" x2="667.88" y2="437.03" stroke="rgb(0, 0, 0)"></line>
<line x1="667.88" y1="437.03" x2="677.29" y2="432.37" stroke="rgb(0, 0, 255)"></line>
<g stroke="rgb(0, 0, 0)" stroke-width="0.3" transform="matrix(2.50 1.66 -0.25 0.37 692.84 433.37)">
 <line x1="0" y1="8" x2="0" y2="-8"></line>
 <line x1="1" y1="7" x2="1" y2="-7"></line>
 <line x1="2" y1="6" x2="2" y2="-6"></line>
 <line x1="3" y1="5" x2="3" y2="-5"></line>
 <line x1="4" y1="4" x2="4" y2="-4"></line>
 <line x1="5" y1="3" x2="5" y2="-3"></line>
 <line x1="6" y1="2" x2="6" y2="-2"></line>
 <line x1="7" y1="1" x2="7" y2="-1"></line>
</g>
<line x1="710.32" y1="445.02" x2="708.40" y2="474.95" stroke="rgb(0, 0, 0)"></line>
<line x1="708.40" y1="474.95" x2="733.37" y2="491.59" stroke="rgb(0, 0, 0)"></line>
<line x1="733.37" y1="491.59" x2="732.70" y2="502.07" stroke="rgb(0, 0, 0)"></line>
<line x1="732.70" y1="502.07" x2="732.02" y2="512.54" stroke="rgb(255, 0, 0)"></line>
<line x1="734.37" y1="493.60" x2="743.78" y2="488.94" stroke="rgb(0, 0, 0)"></line>
<line x1="743.78" y1="488.94" x2="753.19" y2="484.29" stroke="rgb(255, 0, 0)"></line>
<line x1="732.37" y1="489.57" x2="741.78" y2="484.91" stroke="rgb(0, 0, 0)"></line>
<line x1="741.78" y1="484.91" x2="751.19" y2="480.25" stroke="rgb(255, 0, 0)"></line>
<line x1="710.32" y1="445.02" x2="737.21" y2="431.71" stroke="rgb(0, 0, 0)"></line>
<line x1="739.45" y1="431.85" x2="740.12" y2="421.37" stroke="rgb(0, 0, 0)"></line>
<line x1="740.12" y1="421.37" x2="740.80" y2="410.89" stroke="rgb(255, 0, 0)"></line>
<line x1="734.96" y1="431.56" x2="735.63" y2="421.08" stroke="rgb(0, 0, 0)"></line>
<line x1="735.63" y1="421.08" x2="736.31" y2="410.61" stroke="rgb(255, 0, 0)"></line>
<line x1="737.21" y1="431.71" x2="745.95" y2="437.53" stroke="rgb(0, 0, 0)"></line>
<line x1="745.95" y1="437.53" x2="754.68" y2="443.35" stroke="rgb(0, 0, 255)"></line>
<g stroke="rgb(0, 0, 0)" stroke-width="0.3" transform="matrix(2.69 -1.33 0.20 0.40 770.24 444.35)">
 <line x1="0" y1="8" x2="0" y2="-8"></line>
 <line x1="1" y1="7" x2="1" y2="-7"></line>
 <line x1="2" y1="6" x2="2" y2="-6"></line>
 <line x1="3" y1="5" x2="3" y2="-5"></line>
 <line x1="4" y1="4" x2="4" y2="-4"></line>
 <line x1="5" y1="3" x2="5" y2="-3"></line>
 <line x1="6" y1="2" x2="6" y2="-2"></line>
 <line x1="7" y1="1" x2="7" y2="-1"></line>
</g>
<line x1="789.06" y1="435.03" x2="814.03" y2="451.67" stroke="rgb(0, 0, 0)"></line>
<line x1="814.03" y1="451.67" x2="812.11" y2="481.60" stroke="rgb(0, 0, 0)"></line>
<line x1="812.11" y1="481.60" x2="837.08" y2="498.24" stroke="rgb(0, 0, 0)"></line>
<line x1="812.11" y1="487.01" x2="832.09" y2="500.32" stroke="rgb(0, 0, 0)"></line>
<line x1="837.08" y1="498.24" x2="835.16" y2="528.18" stroke="rgb(0, 0, 0)"></line>
<line x1="835.16" y1="528.18" x2="808.27" y2="541.48" stroke="rgb(0, 0, 0)"></line>
<line x1="830.47" y1="525.47" x2="808.96" y2="536.12" stroke="rgb(0, 0, 0)"></line>
<line x1="808.27" y1="541.48" x2="783.30" y2="524.85" stroke="rgb(0, 0, 0)"></line>
<line x1="783.30" y1="524.85" x2="785.22" y2="494.91" stroke="rgb(0, 0, 0)"></line>
<line x1="787.99" y1="522.14" x2="789.52" y2="498.19" stroke="rgb(0, 0, 0)"></line>
<line x1="812.11" y1="481.60" x2="785.22" y2="494.91" stroke="rgb(0, 0, 0)"></line>
<line x1="789.06" y1="435.03" x2="790.98" y2="405.09" stroke="rgb(0, 0, 0)"></line>
<line x1="792.23" y1="403.22" x2="783.49" y2="397.40" stroke="rgb(0, 0, 0)"></line>
<line x1="783.49" y1="397.40" x2="774.75" y2="391.58" stroke="rgb(255, 0, 0)"></line>
<line x1="789.74" y1="406.97" x2="781.00" y2="401.15" stroke="rgb(0, 0, 0)"></line>
<line x1="781.00" y1="401.15" x2="772.26" y2="395.32" stroke="rgb(255, 0, 0)"></line>
<line x1="790.98" y1="405.09" x2="800.39" y2="400.44" stroke="rgb(0, 0, 0)"></line>
<line x1="800.39" y1="400.44" x2="809.81" y2="395.78" stroke="rgb(0, 0, 255)"></line>
<g stroke="rgb(0, 0, 0)" stroke-width="0.3" transform="matrix(2.50 1.66 -0.25 0.37 825.36 396.78)">
 <line x1="0" y1="8" x2="0" y2="-8"></line>
 <line x1="1" y1="7" x2="1" y2="-7"></line>
 <line x1="2" y1="6" x2="2" y2="-6"></line>
 <line x1="3" y1="5" x2="3" y2="-5"></line>
 <line x1="4" y1="4" x2="4" y2="-4"></line>
 <line x1="5" y1="3" x2="5" y2="-3"></line>
 <line x1="6" y1="2" x2="6" y2="-2"></line>
 <line x1="7" y1="1" x2="7" y2="-1"></line>
</g>
<line x1="842.84" y1="408.42" x2="840.92" y2="438.36" stroke="rgb(0, 0, 0)"></line>
<line x1="840.92" y1="438.36" x2="865.89" y2="454.99" stroke="rgb(0, 0, 0)"></line>
<line x1="865.89" y1="454.99" x2="863.97" y2="484.93" stroke="rgb(0, 0, 0)"></line>
<line x1="863.97" y1="484.93" x2="859.09" y2="494.23" stroke="rgb(0, 0, 0)"></line>
<line x1="859.09" y1="494.23" x2="854.21" y2="503.53" stroke="rgb(255, 0, 0)"></line>
<line x1="862.72" y1="486.80" x2="871.46" y2="492.63" stroke="rgb(0, 0, 0)"></line>
<line x1="871.46" y1="492.63" x2="880.19" y2="498.45" stroke="rgb(255, 0, 0)"></line>
<line x1="865.21" y1="483.06" x2="873.95" y2="488.88" stroke="rgb(0, 0, 0)"></line>
<line x1="873.95" y1="488.88" x2="882.69" y2="494.70" stroke="rgb(255, 0, 0)"></line>
<line x1="842.84" y1="408.42" x2="869.73" y2="395.12" stroke="rgb(0, 0, 0)"></line>
<line x1="871.97" y1="395.26" x2="872.65" y2="384.78" stroke="rgb(0, 0, 0)"></line>
<line x1="872.65" y1="384.78" x2="873.32" y2="374.30" stroke="rgb(255, 0, 0)"></line>
<line x1="867.48" y1="394.97" x2="868.16" y2="384.49" stroke="rgb(0, 0, 0)"></line>
<line x1="868.16" y1="384.49" x2="868.83" y2="374.02" stroke="rgb(255, 0, 0)"></line>
<line x1="869.73" y1="395.12" x2="878.47" y2="400.94" stroke="rgb(0, 0, 0)"></line>
<line x1="878.47" y1="400.94" x2="887.21" y2="406.76" stroke="rgb(0, 0, 255)"></line>
<polygon points="0,1 0,-1 1,0" fill="rgb(0, 0, 0)" transform="matrix(18.82 -9.31 1.40 2.82 902.76 407.76)"></polygon>
<line x1="921.58" y1="398.44" x2="923.50" y2="368.50" stroke="rgb(0, 0, 0)"></line>
<line x1="923.50" y1="368.50" x2="950.39" y2="355.20" stroke="rgb(0, 0, 0)"></line>
<line x1="950.39" y1="355.20" x2="952.31" y2="325.26" stroke="rgb(0, 0, 0)"></line>
<line x1="952.31" y1="325.26" x2="943.57" y2="319.44" stroke="rgb(0, 0, 0)"></line>
<line x1="943.57" y1="319.44" x2="934.83" y2="313.61" stroke="rgb(255, 0, 0)"></line>
<line x1="953.31" y1="327.27" x2="962.72" y2="322.62" stroke="rgb(0, 0, 0)"></line>
<line x1="962.72" y1="322.62" x2="972.13" y2="317.96" stroke="rgb(255, 0, 0)"></line>
<line x1="951.31" y1="323.24" x2="960.72" y2="318.58" stroke="rgb(0, 0, 0)"></line>
<line x1="960.72" y1="318.58" x2="970.13" y2="313.93" stroke="rgb(255, 0, 0)"></line>
<line x1="921.58" y1="398.44" x2="946.55" y2="415.07" stroke="rgb(0, 0, 0)"></line>
<line x1="944.31" y1="414.93" x2="943.63" y2="425.41" stroke="rgb(0, 0, 0)"></line>
<line x1="943.63" y1="425.41" x2="942.96" y2="435.89" stroke="rgb(255, 0, 0)"></line>
<line x1="948.80" y1="415.22" x2="948.12" y2="425.70" stroke="rgb(0, 0, 0)"></line>
<line x1="948.12" y1="425.70" x2="947.45" y2="436.18" stroke="rgb(255, 0, 0)"></line>
<line x1="946.55" y1="415.07" x2="955.96" y2="410.42" stroke="rgb(0, 0, 0)"></line>
<line x1="955.96" y1="410.42" x2="965.37" y2="405.76" stroke="rgb(0, 0, 255)"></line>
<g stroke="rgb(0, 0, 0)" stroke-width="0.3" transform="matrix(2.50 1.66 -0.25 0.37 980.93 406.76)">
 <line x1="0" y1="8" x2="0" y2="-8"></line>
 <line x1="1" y1="7" x2="1" y2="-7"></line>
 <line x1="2" y1="6" x2="2" y2="-6"></line>
 <line x1="3" y1="5" x2="3" y2="-5"></line>
 <line x1="4" y1="4" x2="4" y2="-4"></line>
 <line x1="5" y1="3" x2="5" y2="-3"></line>
 <line x1="6" y1="2" x2="6" y2="-2"></line>
 <line x1="7" y1="1" x2="7" y2="-1"></line>
</g>
<line x1="998.41" y1="418.40" x2="996.49" y2="448.34" stroke="rgb(0, 0, 0)"></line>
<polygon points="0,1 0,-1 1,0" fill="rgb(0, 0, 0)" transform="matrix(-24.97 -16.63 2.49 -3.75 1021.45 464.97)"></polygon>
<line x1="996.49" y1="448.34" x2="969.60" y2="461.64" stroke="rgb(0, 0, 0)"></line>
<line x1="969.60" y1="461.64" x2="967.68" y2="491.59" stroke="rgb(0, 0, 0)"></line>
<line x1="998.41" y1="418.40" x2="1025.29" y2="405.09" stroke="rgb(0, 0, 0)"></line>
<line x1="1027.54" y1="405.24" x2="1028.21" y2="394.76" stroke="rgb(0, 0, 0)"></line>
<line x1="1028.21" y1="394.76" x2="1028.88" y2="384.28" stroke="rgb(255, 0, 0)"></line>
<line x1="1023.05" y1="404.95" x2="1023.72" y2="394.47" stroke="rgb(0, 0, 0)"></line>
<line x1="1023.72" y1="394.47" x2="1024.39" y2="383.99" stroke="rgb(255, 0, 0)"></line>
<line x1="1025.29" y1="405.09" x2="1034.03" y2="410.92" stroke="rgb(0, 0, 0)"></line>
<line x1="1034.03" y1="410.92" x2="1042.77" y2="416.74" stroke="rgb(0, 0, 255)"></line>
<line x1="1050.63" y1="430.72" x2="1051.05" y2="441.21" stroke="rgb(0, 0, 255)"></line>
<line x1="1051.05" y1="441.21" x2="1051.48" y2="451.70" stroke="rgb(0, 0, 0)"></line>
<line x1="1051.48" y1="451.70" x2="1080.37" y2="459.81" stroke="rgb(0, 0, 0)"></line>
<line x1="1080.37" y1="459.81" x2="1097.00" y2="434.84" stroke="rgb(0, 0, 0)"></line>
<line x1="1097.00" y1="434.84" x2="1078.39" y2="411.31" stroke="rgb(0, 0, 0)"></line>
<line x1="1058.70" y1="418.60" x2="1068.55" y2="414.95" stroke="rgb(0, 0, 255)"></line>
<line x1="1068.55" y1="414.95" x2="1078.39" y2="411.31" stroke="rgb(0, 0, 0)"></line>
<g stroke="rgb(0, 0, 0)" stroke-width="0.3" transform="matrix(-1.16 4.13 -0.62 -0.17 1086.49 382.42)">
 <line x1="0" y1="8" x2="0" y2="-8"></line>
 <line x1="1" y1="7" x2="1" y2="-7"></line>
 <line x1="2" y1="6" x2="2" y2="-6"></line>
 <line x1="3" y1="5" x2="3" y2="-5"></line>
 <line x1="4" y1="4" x2="4" y2="-4"></line>
 <line x1="5" y1="3" x2="5" y2="-3"></line>
 <line x1="6" y1="2" x2="6" y2="-2"></line>
 <line x1="7" y1="1" x2="7" y2="-1"></line>
</g>
<line x1="1087.05" y1="384.60" x2="1097.23" y2="382.00" stroke="rgb(0, 0, 0)"></line>
<line x1="1097.23" y1="382.00" x2="1107.40" y2="379.40" stroke="rgb(255, 0, 0)"></line>
<line x1="1085.94" y1="380.24" x2="1096.11" y2="377.64" stroke="rgb(0, 0, 0)"></line>
<line x1="1096.11" y1="377.64" x2="1106.29" y2="375.04" stroke="rgb(255, 0, 0)"></line>
<line x1="1086.49" y1="382.42" x2="1079.16" y2="374.91" stroke="rgb(0, 0, 0)"></line>
<line x1="1079.16" y1="374.91" x2="1071.82" y2="367.40" stroke="rgb(0, 0, 255)"></line>
<g stroke="rgb(0, 0, 0)" stroke-width="0.3" transform="matrix(0.81 -2.89 0.43 0.12 1067.96 352.29)">
 <line x1="0" y1="8" x2="0" y2="-8"></line>
 <line x1="1" y1="7" x2="1" y2="-7"></line>
 <line x1="2" y1="6" x2="2" y2="-6"></line>
 <line x1="3" y1="5" x2="3" y2="-5"></line>
 <line x1="4" y1="4" x2="4" y2="-4"></line>
 <line x1="5" y1="3" x2="5" y2="-3"></line>
 <line x1="6" y1="2" x2="6" y2="-2"></line>
 <line x1="7" y1="1" x2="7" y2="-1"></line>
</g>
<line x1="1073.64" y1="332.08" x2="1102.70" y2="324.65" stroke="rgb(0, 0, 0)"></line>
<line x1="1102.70" y1="324.65" x2="1110.80" y2="295.76" stroke="rgb(0, 0, 0)"></line>
<line x1="1110.80" y1="295.76" x2="1139.87" y2="288.34" stroke="rgb(0, 0, 0)"></line>
<line x1="1139.87" y1="288.34" x2="1142.71" y2="278.23" stroke="rgb(0, 0, 0)"></line>
<line x1="1142.71" y1="278.23" x2="1145.54" y2="268.12" stroke="rgb(255, 0, 0)"></line>
<line x1="1138.26" y1="289.91" x2="1145.60" y2="297.42" stroke="rgb(0, 0, 0)"></line>
<line x1="1145.60" y1="297.42" x2="1152.94" y2="304.93" stroke="rgb(255, 0, 0)"></line>
<line x1="1141.48" y1="286.77" x2="1148.82" y2="294.28" stroke="rgb(0, 0, 0)"></line>
<line x1="1148.82" y1="294.28" x2="1156.16" y2="301.79" stroke="rgb(255, 0, 0)"></line>
<line x1="1073.64" y1="332.08" x2="1052.67" y2="310.61" stroke="rgb(0, 0, 0)"></line>
<line x1="1052.12" y1="308.43" x2="1041.94" y2="311.03" stroke="rgb(0, 0, 0)"></line>
<line x1="1041.94" y1="311.03" x2="1031.77" y2="313.63" stroke="rgb(255, 0, 0)"></line>
<line x1="1053.23" y1="312.79" x2="1043.06" y2="315.39" stroke="rgb(0, 0, 0)"></line>
<line x1="1043.06" y1="315.39" x2="1032.88" y2="317.99" stroke="rgb(255, 0, 0)"></line>
<line x1="1052.67" y1="310.61" x2="1055.51" y2="300.50" stroke="rgb(0, 0, 0)"></line>
<line x1="1055.51" y1="300.50" x2="1058.34" y2="290.40" stroke="rgb(0, 0, 255)"></line>
<polygon points="0,1 0,-1 1,0" fill="rgb(0, 0, 0)" transform="matrix(-14.67 -15.02 2.25 -2.20 1054.49 275.29)"></polygon>
<line x1="1039.81" y1="260.27" x2="1010.74" y2="267.69" stroke="rgb(0, 0, 0)"></line>
<line x1="1010.74" y1="267.69" x2="989.78" y2="246.23" stroke="rgb(0, 0, 0)"></line>
<line x1="989.78" y1="246.23" x2="960.72" y2="253.66" stroke="rgb(0, 0, 0)"></line>
<line x1="960.72" y1="253.66" x2="957.88" y2="263.77" stroke="rgb(0, 0, 0)"></line>
<line x1="957.88" y1="263.77" x2="955.04" y2="273.88" stroke="rgb(255, 0, 0)"></line>
<line x1="962.32" y1="252.08" x2="954.99" y2="244.57" stroke="rgb(0, 0, 0)"></line>
<line x1="954.99" y1="244.57" x2="947.65" y2="237.06" stroke="rgb(255, 0, 0)"></line>
<line x1="959.11" y1="255.23" x2="951.77" y2="247.72" stroke="rgb(0, 0, 0)"></line>
<line x1="951.77" y1="247.72" x2="944.43" y2="240.21" stroke="rgb(255, 0, 0)"></line>
<line x1="1039.81" y1="260.27" x2="1047.92" y2="231.38" stroke="rgb(0, 0, 0)"></line>
<line x1="1048.47" y1="233.56" x2="1058.65" y2="230.96" stroke="rgb(0, 0, 0)"></line>
<line x1="1058.65" y1="230.96" x2="1068.82" y2="228.37" stroke="rgb(255, 0, 0)"></line>
<line x1="1047.36" y1="229.20" x2="1057.53" y2="226.61" stroke="rgb(0, 0, 0)"></line>
<line x1="1057.53" y1="226.61" x2="1067.71" y2="224.01" stroke="rgb(255, 0, 0)"></line>
<line x1="1047.92" y1="231.38" x2="1040.58" y2="223.87" stroke="rgb(0, 0, 0)"></line>
<line x1="1040.58" y1="223.87" x2="1033.24" y2="216.36" stroke="rgb(0, 0, 255)"></line>
<g stroke="rgb(0, 0, 0)" stroke-width="0.3" transform="matrix(0.81 -2.89 0.43 0.12 1029.38 201.26)">
 <line x1="0" y1="8" x2="0" y2="-8"></line>
 <line x1="1" y1="7" x2="1" y2="-7"></line>
 <line x1="2" y1="6" x2="2" y2="-6"></line>
 <line x1="3" y1="5" x2="3" y2="-5"></line>
 <line x1="4" y1="4" x2="4" y2="-4"></line>
 <line x1="5" y1="3" x2="5" y2="-3"></line>
 <line x1="6" y1="2" x2="6" y2="-2"></line>
 <line x1="7" y1="1" x2="7" y2="-1"></line>
</g>
<line x1="1035.05" y1="181.04" x2="1064.12" y2="173.61" stroke="rgb(0, 0, 0)"></line>
<line x1="1064.12" y1="173.61" x2="1072.23" y2="144.73" stroke="rgb(0, 0, 0)"></line>
<line x1="1072.23" y1="144.73" x2="1051.26" y2="123.27" stroke="rgb(0, 0, 0)"></line>
<line x1="1073.35" y1="139.44" x2="1056.58" y2="122.27" stroke="rgb(0, 0, 0)"></line>
<line x1="1051.26" y1="123.27" x2="1059.36" y2="94.38" stroke="rgb(0, 0, 0)"></line>
<line x1="1059.36" y1="94.38" x2="1088.43" y2="86.96" stroke="rgb(0, 0, 0)"></line>
<line x1="1063.38" y1="98.00" x2="1086.64" y2="92.06" stroke="rgb(0, 0, 0)"></line>
<line x1="1088.43" y1="86.96" x2="1091.27" y2="76.85" stroke="rgb(0, 0, 0)"></line>
<line x1="1091.27" y1="76.85" x2="1094.10" y2="66.74" stroke="rgb(255, 0, 0)"></line>
<line x1="1088.43" y1="86.96" x2="1109.39" y2="108.42" stroke="rgb(0, 0, 0)"></line>
<line x1="1109.39" y1="108.42" x2="1101.29" y2="137.30" stroke="rgb(0, 0, 0)"></line>
<line x1="1104.25" y1="110.09" x2="1097.77" y2="133.20" stroke="rgb(0, 0, 0)"></line>
<line x1="1072.23" y1="144.73" x2="1101.29" y2="137.30" stroke="rgb(0, 0, 0)"></line>
<line x1="1035.05" y1="181.04" x2="1014.09" y2="159.58" stroke="rgb(0, 0, 0)"></line>
<line x1="1013.53" y1="157.40" x2="1003.36" y2="160.00" stroke="rgb(0, 0, 0)"></line>
<line x1="1003.36" y1="160.00" x2="993.19" y2="162.59" stroke="rgb(255, 0, 0)"></line>
<line x1="1014.65" y1="161.76" x2="1004.47" y2="164.36" stroke="rgb(0, 0, 0)"></line>
<line x1="1004.47" y1="164.36" x2="994.30" y2="166.95" stroke="rgb(255, 0, 0)"></line>
<line x1="1014.09" y1="159.58" x2="1016.93" y2="149.47" stroke="rgb(0, 0, 0)"></line>
<line x1="1016.93" y1="149.47" x2="1019.76" y2="139.36" stroke="rgb(0, 0, 255)"></line>
<g stroke="rgb(0, 0, 0)" stroke-width="0.3" transform="matrix(-2.10 -2.15 0.32 -0.31 1015.90 124.25)">
 <line x1="0" y1="8" x2="0" y2="-8"></line>
 <line x1="1" y1="7" x2="1" y2="-7"></line>
 <line x1="2" y1="6" x2="2" y2="-6"></line>
 <line x1="3" y1="5" x2="3" y2="-5"></line>
 <line x1="4" y1="4" x2="4" y2="-4"></line>
 <line x1="5" y1="3" x2="5" y2="-3"></line>
 <line x1="6" y1="2" x2="6" y2="-2"></line>
 <line x1="7" y1="1" x2="7" y2="-1"></line>
</g>
<line x1="1001.23" y1="109.23" x2="1009.33" y2="80.35" stroke="rgb(0, 0, 0)"></line>
<line x1="1009.33" y1="80.35" x2="988.37" y2="58.89" stroke="rgb(0, 0, 0)"></line>
<line x1="988.37" y1="58.89" x2="959.30" y2="66.31" stroke="rgb(0, 0, 0)"></line>
<line x1="988.37" y1="58.89" x2="996.47" y2="30.00" stroke="rgb(0, 0, 0)"></line>
<line x1="1001.23" y1="109.23" x2="972.16" y2="116.66" stroke="rgb(0, 0, 0)"></line>
<line x1="972.16" y1="116.66" x2="964.83" y2="109.15" stroke="rgb(0, 0, 0)"></line>
<line x1="964.83" y1="109.15" x2="957.49" y2="101.64" stroke="rgb(255, 0, 0)"></line>
<line x1="970.00" y1="116.05" x2="967.16" y2="126.16" stroke="rgb(0, 0, 0)"></line>
<line x1="967.16" y1="126.16" x2="964.32" y2="136.27" stroke="rgb(255, 0, 0)"></line>
<line x1="974.33" y1="117.27" x2="971.49" y2="127.38" stroke="rgb(0, 0, 0)"></line>
<line x1="971.49" y1="127.38" x2="968.66" y2="137.49" stroke="rgb(255, 0, 0)"></line>
<text x="240.25" y="651.97" font-size="14.0" fill="rgb(0, 0, 255)" text-anchor="end">HN</text>
<text x="277.66" y="644.44" font-size="14.0" fill="rgb(0, 0, 255)">NH<tspan baseline-shift="-25%" font-size="10">2</tspan></text>
<text x="252.44" y="603.68" font-size="14.0" fill="rgb(0, 0, 255)" text-anchor="middle">NH</text>
<text x="160.10" y="511.08" font-size="14.0" fill="rgb(0, 0, 255)" text-anchor="middle">NH</text>
<text x="140.91" y="559.37" font-size="14.0" fill="rgb(255, 0, 0)" text-anchor="middle">O</text>
<text x="101.26" y="489.54" font-size="14.0" fill="rgb(0, 0, 255)" text-anchor="middle">N</text>
<text x="149.99" y="471.48" font-size="14.0" fill="rgb(255, 0, 0)" text-anchor="middle">O</text>
<text x="122.14" y="415.22" font-size="14.0" fill="rgb(0, 0, 255)">NH<tspan baseline-shift="-25%" font-size="10">2</tspan></text>
<text x="207.17" y="473.87" font-size="14.0" fill="rgb(255, 0, 0)" text-anchor="middle">O</text>
<text x="239.40" y="514.63" font-size="14.0" fill="rgb(0, 0, 255)" text-anchor="middle">N</text>
<text x="293.56" y="455.34" font-size="14.0" fill="rgb(255, 0, 0)" text-anchor="middle">O</text>
<text x="248.70" y="452.02" font-size="14.0" fill="rgb(0, 0, 255)" text-anchor="end">HN</text>
<text x="272.43" y="378.83" font-size="14.0" fill="rgb(255, 0, 0)" text-anchor="middle">O</text>
<text x="295.48" y="425.40" font-size="14.0" fill="rgb(0, 0, 255)" text-anchor="middle">NH</text>
<text x="345.41" y="458.67" font-size="14.0" fill="rgb(255, 0, 0)" text-anchor="middle">O</text>
<text x="374.22" y="415.42" font-size="14.0" fill="rgb(0, 0, 255)" text-anchor="middle">NH</text>
<text x="428.00" y="388.81" font-size="14.0" fill="rgb(255, 0, 0)" text-anchor="middle">O</text>
<text x="451.04" y="435.38" font-size="14.0" fill="rgb(0, 0, 255)" text-anchor="middle">NH</text>
<text x="500.98" y="468.64" font-size="14.0" fill="rgb(255, 0, 0)" text-anchor="middle">O</text>
<text x="529.79" y="425.40" font-size="14.0" fill="rgb(0, 0, 255)" text-anchor="middle">NH</text>
<text x="582.88" y="518.54" font-size="14.0" fill="rgb(0, 0, 255)" text-anchor="end">H<tspan baseline-shift="-25%" font-size="10">2</tspan>N</text>
<text x="604.69" y="475.30" font-size="14.0" fill="rgb(255, 0, 0)" text-anchor="middle">O</text>
<text x="583.56" y="398.79" font-size="14.0" fill="rgb(255, 0, 0)" text-anchor="middle">O</text>
<text x="606.61" y="445.36" font-size="14.0" fill="rgb(0, 0, 255)" text-anchor="middle">NH</text>
<text x="656.54" y="478.63" font-size="14.0" fill="rgb(255, 0, 0)" text-anchor="middle">O</text>
<text x="685.35" y="435.38" font-size="14.0" fill="rgb(0, 0, 255)" text-anchor="middle">NH</text>
<text x="738.45" y="528.53" font-size="14.0" fill="rgb(255, 0, 0)" text-anchor="end">HO</text>
<text x="760.25" y="485.28" font-size="14.0" fill="rgb(255, 0, 0)" text-anchor="middle">O</text>
<text x="739.13" y="408.77" font-size="14.0" fill="rgb(255, 0, 0)" text-anchor="middle">O</text>
<text x="762.17" y="455.34" font-size="14.0" fill="rgb(0, 0, 255)" text-anchor="middle">NH</text>
<text x="766.01" y="395.46" font-size="14.0" fill="rgb(255, 0, 0)" text-anchor="middle">O</text>
<text x="817.87" y="398.79" font-size="14.0" fill="rgb(0, 0, 255)" text-anchor="middle">NH</text>
<text x="857.03" y="518.50" font-size="14.0" fill="rgb(255, 0, 0)" text-anchor="end">HO</text>
<text x="888.93" y="508.56" font-size="14.0" fill="rgb(255, 0, 0)" text-anchor="middle">O</text>
<text x="871.65" y="372.18" font-size="14.0" fill="rgb(255, 0, 0)" text-anchor="middle">O</text>
<text x="894.70" y="418.75" font-size="14.0" fill="rgb(0, 0, 255)" text-anchor="middle">NH</text>
<text x="934.34" y="315.62" font-size="14.0" fill="rgb(255, 0, 0)" text-anchor="end">HO</text>
<text x="979.20" y="318.95" font-size="14.0" fill="rgb(255, 0, 0)" text-anchor="middle">O</text>
<text x="944.63" y="452.02" font-size="14.0" fill="rgb(255, 0, 0)" text-anchor="middle">O</text>
<text x="973.44" y="408.77" font-size="14.0" fill="rgb(0, 0, 255)" text-anchor="middle">NH</text>
<text x="1027.21" y="382.16" font-size="14.0" fill="rgb(255, 0, 0)" text-anchor="middle">O</text>
<text x="1050.26" y="428.73" font-size="14.0" fill="rgb(0, 0, 255)" text-anchor="middle">N</text>
<text x="1115.56" y="382.00" font-size="14.0" fill="rgb(255, 0, 0)" text-anchor="middle">O</text>
<text x="1072.53" y="367.96" font-size="14.0" fill="rgb(0, 0, 255)" text-anchor="end">HN</text>
<text x="1140.98" y="266.45" font-size="14.0" fill="rgb(255, 0, 0)">OH</text>
<text x="1160.84" y="316.80" font-size="14.0" fill="rgb(255, 0, 0)" text-anchor="middle">O</text>
<text x="1023.60" y="325.04" font-size="14.0" fill="rgb(255, 0, 0)" text-anchor="middle">O</text>
<text x="1053.77" y="288.73" font-size="14.0" fill="rgb(0, 0, 255)">NH</text>
<text x="959.61" y="289.54" font-size="14.0" fill="rgb(255, 0, 0)" text-anchor="end">HO</text>
<text x="939.75" y="239.20" font-size="14.0" fill="rgb(255, 0, 0)" text-anchor="middle">O</text>
<text x="1076.98" y="230.96" font-size="14.0" fill="rgb(255, 0, 0)" text-anchor="middle">O</text>
<text x="1033.95" y="216.92" font-size="14.0" fill="rgb(0, 0, 255)" text-anchor="end">HN</text>
<text x="1089.53" y="65.07" font-size="14.0" fill="rgb(255, 0, 0)">OH</text>
<text x="985.02" y="174.00" font-size="14.0" fill="rgb(255, 0, 0)" text-anchor="middle">O</text>
<text x="1015.19" y="137.69" font-size="14.0" fill="rgb(0, 0, 255)">NH</text>
<text x="958.20" y="102.20" font-size="14.0" fill="rgb(255, 0, 0)" text-anchor="end">HO</text>
<text x="964.06" y="152.54" font-size="14.0" fill="rgb(255, 0, 0)" text-anchor="middle">O</text>
</svg>
