<svg xmlns="http://www.w3.org/2000/svg" xmlns:xlink="http://www.w3.org/1999/xlink" version="1.2" baseProfile="tiny" text-rendering="geometricPrecision" preserveAspectRatio="xMidYMid meet" font-weight="normal" font-family="Helvetica" width="300" height="300" viewBox="0 0 240.39 205.79" style="width: 100%; height: 100%;">
<rect x="0" y="0" width="240.39" height="205.79" fill="rgb(255, 255, 255)" opacity="0.0"></rect>
<line x1="30.00" y1="157.97" x2="59.14" y2="143.98" stroke="rgb(0, 0, 0)"></line>
<line x1="59.14" y1="143.98" x2="90.94" y2="157.05" stroke="rgb(0, 0, 0)"></line>
<line x1="58.79" y1="120.28" x2="58.97" y2="132.13" stroke="rgb(0, 192, 192)"></line>
<line x1="58.97" y1="132.13" x2="59.14" y2="143.98" stroke="rgb(0, 0, 0)"></line>
<line x1="50.05" y1="124.48" x2="40.02" y2="141.22" stroke="rgb(0, 192, 192)"></line>
<line x1="40.02" y1="141.22" x2="30.00" y2="157.97" stroke="rgb(0, 0, 0)"></line>
<line x1="30.00" y1="157.97" x2="46.07" y2="175.79" stroke="rgb(0, 0, 0)"></line>
<line x1="73.16" y1="175.38" x2="90.94" y2="157.05" stroke="rgb(0, 0, 0)"></line>
<line x1="90.94" y1="157.05" x2="79.64" y2="140.63" stroke="rgb(0, 0, 0)"></line>
<line x1="79.64" y1="140.63" x2="68.33" y2="124.21" stroke="rgb(0, 192, 192)"></line>
<line x1="46.07" y1="175.79" x2="50.47" y2="152.81" stroke="rgb(0, 0, 0)"></line>
<line x1="50.47" y1="152.81" x2="54.87" y2="129.83" stroke="rgb(0, 192, 192)"></line>
<line x1="62.99" y1="129.70" x2="68.07" y2="152.54" stroke="rgb(0, 192, 192)"></line>
<line x1="68.07" y1="152.54" x2="73.16" y2="175.38" stroke="rgb(0, 0, 0)"></line>
<line x1="58.46" y1="98.62" x2="58.26" y2="85.19" stroke="rgb(0, 192, 192)"></line>
<line x1="58.26" y1="85.19" x2="58.06" y2="71.76" stroke="rgb(0, 0, 0)"></line>
<line x1="67.87" y1="93.73" x2="78.65" y2="74.61" stroke="rgb(0, 192, 192)"></line>
<line x1="78.65" y1="74.61" x2="89.42" y2="55.48" stroke="rgb(0, 0, 0)"></line>
<line x1="62.37" y1="88.40" x2="66.73" y2="63.05" stroke="rgb(0, 192, 192)"></line>
<line x1="66.73" y1="63.05" x2="71.09" y2="37.69" stroke="rgb(0, 0, 0)"></line>
<line x1="44.01" y1="38.10" x2="49.13" y2="63.31" stroke="rgb(0, 0, 0)"></line>
<line x1="49.13" y1="63.31" x2="54.25" y2="88.52" stroke="rgb(0, 192, 192)"></line>
<line x1="30.70" y1="54.10" x2="40.48" y2="73.71" stroke="rgb(0, 0, 0)"></line>
<line x1="40.48" y1="73.71" x2="50.26" y2="93.32" stroke="rgb(0, 192, 192)"></line>
<line x1="46.07" y1="175.79" x2="73.16" y2="175.38" stroke="rgb(0, 0, 0)"></line>
<line x1="58.06" y1="71.76" x2="30.70" y2="54.10" stroke="rgb(0, 0, 0)"></line>
<line x1="89.42" y1="55.48" x2="58.06" y2="71.76" stroke="rgb(0, 0, 0)"></line>
<line x1="89.42" y1="55.48" x2="71.09" y2="37.69" stroke="rgb(0, 0, 0)"></line>
<line x1="71.09" y1="37.69" x2="44.01" y2="38.10" stroke="rgb(0, 0, 0)"></line>
<line x1="44.01" y1="38.10" x2="30.70" y2="54.10" stroke="rgb(0, 0, 0)"></line>
<line x1="173.69" y1="39.26" x2="176.77" y2="49.30" stroke="rgb(255, 0, 0)"></line>
<line x1="176.77" y1="49.30" x2="179.86" y2="59.34" stroke="rgb(0, 0, 0)"></line>
<line x1="177.99" y1="37.94" x2="181.08" y2="47.98" stroke="rgb(255, 0, 0)"></line>
<line x1="181.08" y1="47.98" x2="184.16" y2="58.02" stroke="rgb(0, 0, 0)"></line>
<line x1="182.01" y1="58.68" x2="210.39" y2="68.40" stroke="rgb(0, 0, 0)"></line>
<line x1="182.01" y1="58.68" x2="175.70" y2="67.07" stroke="rgb(0, 0, 0)"></line>
<line x1="175.70" y1="67.07" x2="169.40" y2="75.46" stroke="rgb(0, 0, 255)"></line>
<line x1="210.39" y1="68.40" x2="209.90" y2="98.39" stroke="rgb(0, 0, 0)"></line>
<line x1="205.84" y1="71.33" x2="205.45" y2="95.32" stroke="rgb(0, 0, 0)"></line>
<line x1="209.90" y1="98.39" x2="181.23" y2="107.20" stroke="rgb(0, 0, 0)"></line>
<line x1="179.10" y1="106.47" x2="175.70" y2="116.41" stroke="rgb(0, 0, 0)"></line>
<line x1="175.70" y1="116.41" x2="172.29" y2="126.34" stroke="rgb(255, 0, 0)"></line>
<line x1="183.36" y1="107.93" x2="179.95" y2="117.87" stroke="rgb(0, 0, 0)"></line>
<line x1="179.95" y1="117.87" x2="176.55" y2="127.80" stroke="rgb(255, 0, 0)"></line>
<line x1="181.23" y1="107.20" x2="175.20" y2="98.61" stroke="rgb(0, 0, 0)"></line>
<line x1="175.20" y1="98.61" x2="169.16" y2="90.02" stroke="rgb(0, 0, 255)"></line>
<line x1="154.99" y1="82.51" x2="144.50" y2="82.35" stroke="rgb(0, 0, 255)"></line>
<line x1="144.50" y1="82.35" x2="134.00" y2="82.18" stroke="rgb(0, 0, 0)"></line>
<line x1="134.00" y1="82.18" x2="119.42" y2="55.96" stroke="rgb(0, 0, 0)"></line>
<line x1="119.42" y1="55.96" x2="89.42" y2="55.48" stroke="rgb(0, 0, 0)"></line>
<text x="58.64" y="117.13" font-size="14.0" fill="rgb(0, 192, 192)" text-anchor="middle">Fe</text>
<text x="173.20" y="37.00" font-size="14.0" fill="rgb(255, 0, 0)" text-anchor="middle">O</text>
<text x="171.50" y="142.58" font-size="14.0" fill="rgb(255, 0, 0)" text-anchor="middle">O</text>
<text x="163.99" y="89.66" font-size="14.0" fill="rgb(0, 0, 255)" text-anchor="middle">N</text>
</svg>
