<svg xmlns="http://www.w3.org/2000/svg" xmlns:xlink="http://www.w3.org/1999/xlink" version="1.2" baseProfile="tiny" text-rendering="geometricPrecision" preserveAspectRatio="xMidYMid meet" font-weight="normal" font-family="Helvetica" width="300" height="300" viewBox="0 0 321.83 301.03" style="width: 100%; height: 100%;">
<rect x="0" y="0" width="321.83" height="301.03" fill="rgb(255, 255, 255)" opacity="0.0"></rect>
<line x1="61.77" y1="266.18" x2="70.85" y2="260.90" stroke="rgb(64, 192, 64)"></line>
<line x1="70.85" y1="260.90" x2="79.92" y2="255.61" stroke="rgb(0, 0, 0)"></line>
<line x1="258.02" y1="213.80" x2="248.95" y2="219.08" stroke="rgb(255, 0, 0)"></line>
<line x1="248.95" y1="219.08" x2="239.87" y2="224.37" stroke="rgb(0, 0, 0)"></line>
<line x1="273.60" y1="213.74" x2="282.72" y2="218.95" stroke="rgb(255, 0, 0)"></line>
<line x1="282.72" y1="218.95" x2="291.83" y2="224.16" stroke="rgb(0, 0, 0)"></line>
<line x1="89.75" y1="79.50" x2="98.84" y2="84.75" stroke="rgb(0, 0, 255)"></line>
<line x1="98.84" y1="84.75" x2="107.94" y2="90.00" stroke="rgb(0, 0, 0)"></line>
<line x1="81.96" y1="66.00" x2="81.96" y2="55.50" stroke="rgb(0, 0, 255)"></line>
<line x1="81.96" y1="55.50" x2="81.96" y2="45.00" stroke="rgb(0, 0, 0)"></line>
<line x1="74.17" y1="79.50" x2="65.07" y2="84.75" stroke="rgb(0, 0, 255)"></line>
<line x1="65.07" y1="84.75" x2="55.98" y2="90.00" stroke="rgb(0, 0, 0)"></line>
<line x1="152.10" y1="175.49" x2="143.01" y2="170.24" stroke="rgb(0, 0, 255)"></line>
<line x1="143.01" y1="170.24" x2="133.92" y2="164.99" stroke="rgb(0, 0, 0)"></line>
<line x1="159.89" y1="188.99" x2="159.89" y2="199.49" stroke="rgb(0, 0, 255)"></line>
<line x1="159.89" y1="199.49" x2="159.89" y2="209.99" stroke="rgb(0, 0, 0)"></line>
<line x1="167.69" y1="265.49" x2="176.78" y2="260.24" stroke="rgb(0, 0, 255)"></line>
<line x1="176.78" y1="260.24" x2="185.88" y2="254.99" stroke="rgb(0, 0, 0)"></line>
<line x1="167.26" y1="260.54" x2="174.53" y2="256.34" stroke="rgb(0, 0, 255)"></line>
<line x1="174.53" y1="256.34" x2="181.81" y2="252.14" stroke="rgb(0, 0, 0)"></line>
<line x1="152.10" y1="265.49" x2="143.01" y2="260.24" stroke="rgb(0, 0, 255)"></line>
<line x1="143.01" y1="260.24" x2="133.92" y2="254.99" stroke="rgb(0, 0, 0)"></line>
<line x1="133.92" y1="164.99" x2="133.92" y2="135.00" stroke="rgb(0, 0, 0)"></line>
<line x1="133.92" y1="164.99" x2="107.94" y2="179.99" stroke="rgb(0, 0, 0)"></line>
<line x1="133.92" y1="135.00" x2="107.94" y2="120.00" stroke="rgb(0, 0, 0)"></line>
<line x1="107.94" y1="120.00" x2="107.94" y2="90.00" stroke="rgb(0, 0, 0)"></line>
<line x1="159.89" y1="209.99" x2="185.88" y2="224.99" stroke="rgb(0, 0, 0)"></line>
<line x1="160.24" y1="215.39" x2="181.03" y2="227.39" stroke="rgb(0, 0, 0)"></line>
<line x1="159.89" y1="209.99" x2="133.92" y2="224.99" stroke="rgb(0, 0, 0)"></line>
<line x1="81.96" y1="45.00" x2="55.98" y2="30.00" stroke="rgb(0, 0, 0)"></line>
<line x1="55.98" y1="90.00" x2="30.00" y2="75.00" stroke="rgb(0, 0, 0)"></line>
<line x1="185.88" y1="224.99" x2="185.88" y2="254.99" stroke="rgb(0, 0, 0)"></line>
<line x1="185.88" y1="224.99" x2="212.69" y2="208.95" stroke="rgb(0, 0, 0)"></line>
<line x1="133.92" y1="224.99" x2="133.92" y2="254.99" stroke="rgb(0, 0, 0)"></line>
<line x1="129.42" y1="227.99" x2="129.42" y2="251.99" stroke="rgb(0, 0, 0)"></line>
<line x1="133.92" y1="224.99" x2="107.10" y2="208.95" stroke="rgb(0, 0, 0)"></line>
<line x1="185.88" y1="254.99" x2="212.69" y2="271.03" stroke="rgb(0, 0, 0)"></line>
<line x1="133.92" y1="254.99" x2="107.10" y2="271.03" stroke="rgb(0, 0, 0)"></line>
<line x1="212.69" y1="208.95" x2="239.87" y2="224.37" stroke="rgb(0, 0, 0)"></line>
<line x1="213.19" y1="214.41" x2="234.94" y2="226.74" stroke="rgb(0, 0, 0)"></line>
<line x1="107.10" y1="208.95" x2="79.92" y2="224.37" stroke="rgb(0, 0, 0)"></line>
<line x1="106.60" y1="214.41" x2="84.86" y2="226.74" stroke="rgb(0, 0, 0)"></line>
<line x1="212.69" y1="271.03" x2="239.87" y2="255.61" stroke="rgb(0, 0, 0)"></line>
<line x1="213.19" y1="265.57" x2="234.94" y2="253.24" stroke="rgb(0, 0, 0)"></line>
<line x1="107.10" y1="271.03" x2="79.92" y2="255.61" stroke="rgb(0, 0, 0)"></line>
<line x1="106.60" y1="265.57" x2="84.86" y2="253.24" stroke="rgb(0, 0, 0)"></line>
<line x1="239.87" y1="224.37" x2="239.87" y2="255.61" stroke="rgb(0, 0, 0)"></line>
<line x1="79.92" y1="224.37" x2="79.92" y2="255.61" stroke="rgb(0, 0, 0)"></line>
<text x="54.00" y="277.71" font-size="14.0" fill="rgb(64, 192, 64)" text-anchor="middle">Cl</text>
<text x="265.79" y="216.27" font-size="14.0" fill="rgb(255, 0, 0)" text-anchor="middle">O</text>
<text x="81.96" y="82.00" font-size="14.0" fill="rgb(0, 0, 255)" text-anchor="middle">N</text>
<text x="159.89" y="186.99" font-size="14.0" fill="rgb(0, 0, 255)" text-anchor="middle">NH</text>
<text x="159.89" y="276.99" font-size="14.0" fill="rgb(0, 0, 255)" text-anchor="middle">N</text>
</svg>
