<svg xmlns="http://www.w3.org/2000/svg" xmlns:xlink="http://www.w3.org/1999/xlink" version="1.2" baseProfile="tiny" text-rendering="geometricPrecision" preserveAspectRatio="xMidYMid meet" font-weight="normal" font-family="Helvetica" width="300" height="300" viewBox="0 0 189.90 135.00" style="width: 100%; height: 100%;">
<rect x="0" y="0" width="189.90" height="135.00" fill="rgb(255, 255, 255)" opacity="0.0"></rect>
<line x1="37.79" y1="64.50" x2="46.89" y2="69.75" stroke="rgb(255, 0, 0)"></line>
<line x1="46.89" y1="69.75" x2="55.98" y2="75.00" stroke="rgb(0, 0, 0)"></line>
<line x1="152.10" y1="70.50" x2="143.01" y2="65.25" stroke="rgb(255, 0, 0)"></line>
<line x1="143.01" y1="65.25" x2="133.91" y2="60.00" stroke="rgb(0, 0, 0)"></line>
<line x1="58.23" y1="96.00" x2="58.23" y2="85.50" stroke="rgb(255, 0, 0)"></line>
<line x1="58.23" y1="85.50" x2="58.23" y2="75.00" stroke="rgb(0, 0, 0)"></line>
<line x1="53.73" y1="96.00" x2="53.73" y2="85.50" stroke="rgb(255, 0, 0)"></line>
<line x1="53.73" y1="85.50" x2="53.73" y2="75.00" stroke="rgb(0, 0, 0)"></line>
<line x1="131.66" y1="39.00" x2="131.66" y2="49.50" stroke="rgb(255, 0, 0)"></line>
<line x1="131.66" y1="49.50" x2="131.66" y2="60.00" stroke="rgb(0, 0, 0)"></line>
<line x1="136.16" y1="39.00" x2="136.16" y2="49.50" stroke="rgb(255, 0, 0)"></line>
<line x1="136.16" y1="49.50" x2="136.16" y2="60.00" stroke="rgb(0, 0, 0)"></line>
<line x1="81.96" y1="60.00" x2="107.94" y2="75.00" stroke="rgb(0, 0, 0)"></line>
<line x1="81.96" y1="60.00" x2="55.98" y2="75.00" stroke="rgb(0, 0, 0)"></line>
<line x1="107.94" y1="75.00" x2="133.91" y2="60.00" stroke="rgb(0, 0, 0)"></line>
<text x="37.00" y="67.00" font-size="14.0" fill="rgb(255, 0, 0)" text-anchor="end">HO</text>
<text x="152.90" y="82.00" font-size="14.0" fill="rgb(255, 0, 0)">OH</text>
<text x="55.98" y="112.00" font-size="14.0" fill="rgb(255, 0, 0)" text-anchor="middle">O</text>
<text x="133.91" y="37.00" font-size="14.0" fill="rgb(255, 0, 0)" text-anchor="middle">O</text>
</svg>
